# xmcd
#
# Track frame offsets: 
#        150
#        16768
#        33400
#
# Disc length: 634 seconds
#
# Revision: 0
# Processed by: cddbd v1.5.2PL0 Copyright (c) Steve Scherf et al.
# Submitted via: ExactAudioCopy v1.1
#
DISCID=16027803
DTITLE=Sherrié Austin - In The Meantime
DYEAR=2002
DGENRE=Country
TTITLE0=In The Meantime
TTITLE1=In The Meantime (Karaoke Version)
TTITLE2=The Liar
EXTD=
EXTT0=
EXTT1=
EXTT2=
PLAYORDER=
